/* XPM */
static char *battery_drain_half[] = {
/* columns rows colors chars-per-pixel */
"28 24 2 1 ",
"  c None",
". c #C5C8C6",
/* pixels */
"                            ",
"                            ",
"                            ",
"                            ",
"                            ",
"                            ",
"                            ",
"                            ",
"                            ",
"         .........          ",
"         .       .          ",
"         . ...   ..         ",
"         . ...   ..         ",
"         . ...   ..         ",
"         .       .          ",
"         .........          ",
"                            ",
"                            ",
"                            ",
"                            ",
"                            ",
"                            ",
"                            ",
"                            "
};
